<?xml version="1.0" encoding="UTF-8"?>
<svg xmlns="http://www.w3.org/2000/svg" id="Smart_control" data-name="Smart control" viewBox="0 0 64 64" width="512" height="512"><path d="M43.586,16.586a2,2,0,1,0,2.828,0A2,2,0,0,0,43.586,16.586Z"/><path d="M49.243,13.757a6.007,6.007,0,0,0-8.486,0l1.414,1.414a4.007,4.007,0,0,1,5.658,0Z"/><path d="M52.071,10.929a10,10,0,0,0-14.142,0l1.414,1.414a8,8,0,0,1,11.314,0Z"/><path d="M53.485,9.515,54.9,8.1a14.014,14.014,0,0,0-19.8,0l1.414,1.414A12.013,12.013,0,0,1,53.485,9.515Z"/><circle cx="18" cy="21" r="2"/><path d="M13.16,37.61c-.01,0-.02,0-.02-.01a2.51,2.51,0,0,0-.31-.35l-.54-.54a1.014,1.014,0,0,1-.15-1.22l2.27-3.79a.788.788,0,0,0-.12-.99.809.809,0,0,0-.97-.13l-1.81,1.08-1.32.8a2.023,2.023,0,0,1-2.45-.3L6.58,31A2.016,2.016,0,0,1,6,29.59v-6.4L4.07,28.01a.986.986,0,0,0-.07.38V38.67a3.018,3.018,0,0,0,.6,1.8l.66.88A7.07,7.07,0,0,1,6.57,46.7L5.12,60h8.75L12.15,45.91a2.962,2.962,0,0,1,.47-2.14l.71-1.06A3.993,3.993,0,0,0,14,40.49v-.42a3.983,3.983,0,0,0-.85-2.45Z"/><path d="M24,13H12V29.04l.28-.17a2.883,2.883,0,0,1,3.43.42,2.814,2.814,0,0,1,.42,3.44l-1.87,3.11c.05.06.1.11.15.16H24ZM18,25a4,4,0,1,1,4-4A4,4,0,0,1,18,25Z"/><path d="M15.79,42H27a1,1,0,0,0,1-1V10a1,1,0,0,0-1-1H9a1,1,0,0,0-1,1V29.59l1.16,1.15.84-.51V12a1,1,0,0,1,1-1H25a1,1,0,0,1,1,1V37a1,1,0,0,1-1,1H15.62A6.07,6.07,0,0,1,16,40.07v.42A5.854,5.854,0,0,1,15.79,42Z"/><path d="M46.01,48.14,44.73,39.2,40.97,54.24a1.012,1.012,0,0,1-.93.76H40a1,1,0,0,1-.95-.68L34.87,41.76l-2.96,6.65A.987.987,0,0,1,31,49H24.8c5.53,5.58,12.61,9.37,14.2,9.37,1.71,0,8.76-3.86,14.22-9.37H47A1,1,0,0,1,46.01,48.14Z"/><path d="M48,24a11.982,11.982,0,0,0-8.31,3.35,1,1,0,0,1-1.38,0A11.982,11.982,0,0,0,30,24V41a3.009,3.009,0,0,1-3,3H20.72a26.57,26.57,0,0,0,2.24,3h7.39l3.74-8.41a1.036,1.036,0,0,1,.96-.59,1,1,0,0,1,.9.68l3.91,11.75,4.17-16.67A1,1,0,0,1,45.05,33a1.012,1.012,0,0,1,.94.86L47.87,47h7.19C57.92,43.65,60,39.84,60,36A12.01,12.01,0,0,0,48,24Z"/><path d="M17,47v2h5.06c-.59-.65-1.14-1.32-1.67-2Z"/><path d="M57.64,47c-.51.68-1.07,1.35-1.65,2H61V47Z"/></svg>
